<svg id="download-on-the-app-store-apple_1_" data-name="download-on-the-app-store-apple (1)" xmlns="http://www.w3.org/2000/svg" xmlns:xlink="http://www.w3.org/1999/xlink" width="148.875" height="50" viewBox="0 0 148.875 50">
  <defs>
    <linearGradient id="linear-gradient" x1="-1.199" y1="2.436" x2="-1.199" y2="1.535" gradientUnits="objectBoundingBox">
      <stop offset="0" stop-color="#1a1a1a" stop-opacity="0.102"/>
      <stop offset="0.123" stop-color="#212121" stop-opacity="0.153"/>
      <stop offset="0.308" stop-color="#353535" stop-opacity="0.227"/>
      <stop offset="0.532" stop-color="#575757" stop-opacity="0.318"/>
      <stop offset="0.783" stop-color="#858585" stop-opacity="0.42"/>
      <stop offset="1" stop-color="#b3b3b3" stop-opacity="0.51"/>
    </linearGradient>
  </defs>
  <path id="Path_130" data-name="Path 130" d="M150.467,46.781a5.175,5.175,0,0,1-1.239,3.407,3.981,3.981,0,0,1-2.991,1.409H7.8c-2.337,0-4.233-2.153-4.236-4.815V8.382c0-2.663,1.9-4.821,4.236-4.821H146.236c2.337,0,4.231,2.159,4.23,4.821v38.4Z" transform="translate(-2.58 -2.579)" fill="#fff"/>
  <path id="Path_131" data-name="Path 131" d="M143.657,50H5.218C2.341,50,.006,47.36,0,44.1V5.909C0,2.646,2.338,0,5.218,0H143.656c2.879,0,5.212,2.647,5.218,5.909V44.1c0,3.256-2.342,5.9-5.217,5.9Z" fill="#a6a6a6"/>
  <path id="Path_132" data-name="Path 132" d="M150.467,46.781a5.175,5.175,0,0,1-1.239,3.407,3.981,3.981,0,0,1-2.991,1.409H7.8c-2.337,0-4.233-2.153-4.236-4.815V8.382c0-2.663,1.9-4.821,4.236-4.821H146.236c2.337,0,4.231,2.159,4.23,4.821v38.4Z" transform="translate(-2.58 -2.579)" fill="#52004a"/>
  <path id="Path_133" data-name="Path 133" d="M70.323,39.84a6.394,6.394,0,0,1,3.046-5.365,6.552,6.552,0,0,0-5.159-2.789c-2.17-.228-4.276,1.3-5.381,1.3-1.128,0-2.83-1.276-4.665-1.239a6.869,6.869,0,0,0-5.782,3.525c-2.5,4.327-.636,10.687,1.76,14.185,1.2,1.714,2.6,3.626,4.431,3.559,1.793-.073,2.463-1.142,4.626-1.142,2.144,0,2.773,1.142,4.642,1.1,1.924-.03,3.136-1.721,4.292-3.449a14.138,14.138,0,0,0,1.963-4,6.187,6.187,0,0,1-3.774-5.685ZM66.793,29.385a6.293,6.293,0,0,0,1.441-4.511,6.414,6.414,0,0,0-4.146,2.144,5.989,5.989,0,0,0-1.479,4.344,5.3,5.3,0,0,0,4.184-1.978Z" transform="translate(-37.081 -15.488)" fill="#fff"/>
  <path id="Path_134" data-name="Path 134" d="M326.26,0H252.108l29.044,50H326.26c2.879,0,5.212-2.645,5.218-5.907V5.909C331.473,2.646,329.14,0,326.26,0Z" transform="translate(-182.603)" fill="url(#linear-gradient)"/>
  <g id="Group_75" data-name="Group 75" transform="translate(46.816 25.743)">
    <path id="Path_135" data-name="Path 135" d="M182.208,86.913H179.7L178.33,82.6h-4.771l-1.307,4.312h-2.44l4.728-14.68h2.92Zm-4.292-6.121-1.241-3.833q-.2-.587-.74-2.765h-.044q-.218.937-.7,2.765l-1.22,3.833Zm16.427.7a5.993,5.993,0,0,1-1.467,4.268,4.3,4.3,0,0,1-3.264,1.394,3.267,3.267,0,0,1-3.023-1.5v5.554h-2.352v-11.4q0-1.7-.087-3.479h2.069l.131,1.678h.044a4.185,4.185,0,0,1,6.7-.416,5.852,5.852,0,0,1,1.251,3.9Zm-2.4.086a4.363,4.363,0,0,0-.7-2.549,2.41,2.41,0,0,0-2.048-1.045,2.447,2.447,0,0,0-1.579.577,2.676,2.676,0,0,0-.926,1.515,3.07,3.07,0,0,0-.109.716v1.766a2.831,2.831,0,0,0,.708,1.95,2.352,2.352,0,0,0,1.84.8,2.411,2.411,0,0,0,2.069-1.024A4.5,4.5,0,0,0,191.946,81.576Zm14.574-.086a5.993,5.993,0,0,1-1.467,4.268,4.306,4.306,0,0,1-3.265,1.394,3.267,3.267,0,0,1-3.023-1.5v5.554h-2.352v-11.4q0-1.7-.087-3.479h2.069l.131,1.678h.044a4.187,4.187,0,0,1,6.7-.416,5.858,5.858,0,0,1,1.251,3.9Zm-2.4.086a4.363,4.363,0,0,0-.7-2.549,2.406,2.406,0,0,0-2.046-1.045,2.457,2.457,0,0,0-1.581.577,2.674,2.674,0,0,0-.925,1.515,3.14,3.14,0,0,0-.11.716v1.766a2.841,2.841,0,0,0,.707,1.95,2.357,2.357,0,0,0,1.843.8,2.409,2.409,0,0,0,2.069-1.024A4.5,4.5,0,0,0,204.123,81.576ZM220.137,82.8a3.921,3.921,0,0,1-1.305,3.05,5.787,5.787,0,0,1-4,1.285,6.983,6.983,0,0,1-3.8-.914l.544-1.96a6.546,6.546,0,0,0,3.4.916,3.207,3.207,0,0,0,2.069-.6,1.956,1.956,0,0,0,.743-1.6,2.05,2.05,0,0,0-.611-1.5,5.667,5.667,0,0,0-2.026-1.132q-3.856-1.438-3.857-4.2a3.712,3.712,0,0,1,1.362-2.962,5.385,5.385,0,0,1,3.606-1.155,7.127,7.127,0,0,1,3.333.7L219,74.63a5.829,5.829,0,0,0-2.821-.675,2.869,2.869,0,0,0-1.946.61,1.745,1.745,0,0,0-.59,1.33,1.8,1.8,0,0,0,.676,1.437,7.62,7.62,0,0,0,2.134,1.132,7.234,7.234,0,0,1,2.788,1.785,3.719,3.719,0,0,1,.9,2.546Zm7.8-4.7h-2.593v5.139q0,1.961,1.373,1.959a4.133,4.133,0,0,0,1.045-.109l.065,1.786a5.331,5.331,0,0,1-1.829.26,2.82,2.82,0,0,1-2.179-.85,4.17,4.17,0,0,1-.785-2.854V78.088h-1.545V76.323h1.545V74.385l2.31-.7v2.635h2.593Zm11.676,3.441a5.806,5.806,0,0,1-1.395,4.007,4.972,4.972,0,0,1-3.877,1.612,4.74,4.74,0,0,1-3.715-1.544,5.629,5.629,0,0,1-1.384-3.9,5.759,5.759,0,0,1,1.427-4.028,4.946,4.946,0,0,1,3.846-1.569,4.839,4.839,0,0,1,3.746,1.547A5.556,5.556,0,0,1,239.61,81.533Zm-2.438.054a4.739,4.739,0,0,0-.63-2.5,2.329,2.329,0,0,0-2.114-1.261,2.362,2.362,0,0,0-2.157,1.261,4.817,4.817,0,0,0-.631,2.542,4.725,4.725,0,0,0,.631,2.5,2.413,2.413,0,0,0,4.251-.021,4.758,4.758,0,0,0,.65-2.522ZM247.26,78.4a4.094,4.094,0,0,0-.741-.065,2.22,2.22,0,0,0-1.918.938,3.531,3.531,0,0,0-.587,2.09v5.554h-2.352V79.661q0-1.667-.068-3.332h2.049l.086,2.025h.065a3.631,3.631,0,0,1,1.176-1.678,2.845,2.845,0,0,1,1.7-.567,3.777,3.777,0,0,1,.588.043l0,2.244ZM257.78,81.12a5.515,5.515,0,0,1-.086,1.067h-7.057a3.069,3.069,0,0,0,1.024,2.4,3.5,3.5,0,0,0,2.308.739,7.807,7.807,0,0,0,2.856-.5l.369,1.631a8.83,8.83,0,0,1-3.55.654,5.146,5.146,0,0,1-3.868-1.447,5.35,5.35,0,0,1-1.4-3.887,6.062,6.062,0,0,1,1.309-3.984,4.509,4.509,0,0,1,3.7-1.7,3.946,3.946,0,0,1,3.466,1.7A5.712,5.712,0,0,1,257.78,81.12Zm-2.243-.61a3.183,3.183,0,0,0-.457-1.808,2.054,2.054,0,0,0-1.874-.982,2.23,2.23,0,0,0-1.872.959,3.512,3.512,0,0,0-.7,1.829l4.9,0Z" transform="translate(-169.812 -72.016)" fill="#fff"/>
  </g>
  <g id="Group_76" data-name="Group 76" transform="translate(48.193 8.398)">
    <path id="Path_136" data-name="Path 136" d="M176.5,33.872a15.025,15.025,0,0,1-1.691-.086v-7.1a12.809,12.809,0,0,1,1.992-.15c2.7,0,3.94,1.327,3.94,3.49C180.738,32.524,179.271,33.872,176.5,33.872Zm.4-6.423a4.72,4.72,0,0,0-.931.075v5.4a6.106,6.106,0,0,0,.781.032,2.556,2.556,0,0,0,2.774-2.89A2.354,2.354,0,0,0,176.893,27.449Zm7.717,6.477A2.476,2.476,0,0,1,182.1,31.25,2.534,2.534,0,0,1,184.7,28.5a2.457,2.457,0,0,1,2.506,2.666,2.549,2.549,0,0,1-2.592,2.761Zm.044-4.582c-.835,0-1.37.781-1.37,1.873,0,1.071.546,1.852,1.359,1.852S186,32.234,186,31.2C186,30.136,185.467,29.344,184.654,29.344Zm11.218-.738-1.627,5.2h-1.06l-.674-2.259a17.128,17.128,0,0,1-.418-1.68h-.022a11.259,11.259,0,0,1-.417,1.68l-.717,2.259h-1.071l-1.531-5.2h1.188l.589,2.473q.209.884.353,1.67h.022c.085-.438.224-.985.428-1.659l.739-2.483h.942l.707,2.43c.171.589.31,1.167.418,1.713h.031a14.971,14.971,0,0,1,.353-1.713l.632-2.43h1.135Zm5.991,5.2h-1.156V30.821c0-.92-.353-1.381-1.049-1.381a1.2,1.2,0,0,0-1.156,1.274v3.094h-1.156V30.093c0-.46-.011-.953-.043-1.488h1.017l.054.8h.032a1.869,1.869,0,0,1,1.65-.909c1.092,0,1.81.835,1.81,2.194v3.115Zm3.189,0h-1.157V26.219h1.157Zm4.216.118a2.477,2.477,0,0,1-2.506-2.676,2.534,2.534,0,0,1,2.591-2.751,2.456,2.456,0,0,1,2.506,2.666,2.548,2.548,0,0,1-2.591,2.761Zm.043-4.582c-.835,0-1.37.781-1.37,1.873,0,1.071.547,1.852,1.358,1.852s1.359-.835,1.359-1.874c0-1.059-.533-1.851-1.347-1.851Zm7.107,4.464-.084-.6H216.3a1.777,1.777,0,0,1-1.522.717,1.513,1.513,0,0,1-1.594-1.531c0-1.284,1.113-1.948,3.041-1.948v-.1c0-.685-.363-1.028-1.08-1.028a2.435,2.435,0,0,0-1.359.386l-.235-.76a3.327,3.327,0,0,1,1.786-.45c1.359,0,2.046.717,2.046,2.152v1.916a7.857,7.857,0,0,0,.075,1.242Zm-.159-2.591c-1.284,0-1.929.311-1.929,1.049a.737.737,0,0,0,.793.813,1.107,1.107,0,0,0,1.135-1.059ZM223,33.808l-.054-.835h-.032a1.744,1.744,0,0,1-1.671.953c-1.255,0-2.184-1.1-2.184-2.655,0-1.627.963-2.773,2.278-2.773a1.564,1.564,0,0,1,1.467.707h.023V26.219h1.157v6.187c0,.5.012.974.043,1.4H223Zm-.171-3.061a1.259,1.259,0,0,0-1.218-1.349c-.857,0-1.381.76-1.381,1.83,0,1.049.544,1.767,1.358,1.767a1.3,1.3,0,0,0,1.241-1.381v-.867Zm8.5,3.179a2.476,2.476,0,0,1-2.5-2.676,2.534,2.534,0,0,1,2.591-2.751,2.456,2.456,0,0,1,2.506,2.666,2.548,2.548,0,0,1-2.592,2.761Zm.043-4.582c-.834,0-1.369.781-1.369,1.873,0,1.071.546,1.852,1.358,1.852s1.359-.835,1.359-1.874c0-1.059-.533-1.851-1.348-1.851Zm8.767,4.464h-1.157V30.821c0-.92-.353-1.381-1.049-1.381a1.2,1.2,0,0,0-1.155,1.274v3.094h-1.157V30.093c0-.46-.011-.953-.043-1.488h1.017l.054.8h.032a1.868,1.868,0,0,1,1.648-.91c1.092,0,1.811.835,1.811,2.194Zm7.78-4.335h-1.272V32c0,.643.223.964.673.964a2.278,2.278,0,0,0,.513-.054l.032.878a2.562,2.562,0,0,1-.9.129c-.911,0-1.456-.5-1.456-1.82V29.473h-.759v-.867h.759v-.953l1.135-.343v1.3h1.272v.868Zm6.122,4.335h-1.155V30.843c0-.931-.352-1.4-1.049-1.4a1.134,1.134,0,0,0-1.157,1.231v3.136H249.52V26.219h1.155v3.125h.023a1.754,1.754,0,0,1,1.565-.846c1.1,0,1.774.856,1.774,2.216v3.094Zm6.272-2.323h-3.47a1.493,1.493,0,0,0,1.64,1.541,3.909,3.909,0,0,0,1.4-.246l.18.8a4.345,4.345,0,0,1-1.746.321,2.415,2.415,0,0,1-2.591-2.622,2.541,2.541,0,0,1,2.461-2.794,2.185,2.185,0,0,1,2.164,2.473,2.229,2.229,0,0,1-.04.524Zm-1.06-.824c0-.8-.4-1.37-1.144-1.37a1.371,1.371,0,0,0-1.264,1.37Z" transform="translate(-174.806 -26.219)" fill="#fff"/>
  </g>
</svg>
