<svg id="google-play-badge" xmlns="http://www.w3.org/2000/svg" xmlns:xlink="http://www.w3.org/1999/xlink" width="144.875" height="44.111" viewBox="0 0 144.875 44.111">
  <defs>
    <linearGradient id="linear-gradient" x1="0.908" y1="1.032" x2="-0.383" y2="0.36" gradientUnits="objectBoundingBox">
      <stop offset="0" stop-color="#00a0ff"/>
      <stop offset="0.007" stop-color="#00a1ff"/>
      <stop offset="0.26" stop-color="#00beff"/>
      <stop offset="0.512" stop-color="#00d2ff"/>
      <stop offset="0.76" stop-color="#00dfff"/>
      <stop offset="1" stop-color="#00e3ff"/>
    </linearGradient>
    <linearGradient id="linear-gradient-2" x1="1.077" y1="0.729" x2="-1.307" y2="0.729" gradientUnits="objectBoundingBox">
      <stop offset="0" stop-color="#ffe000"/>
      <stop offset="0.409" stop-color="#ffbd00"/>
      <stop offset="0.775" stop-color="orange"/>
      <stop offset="1" stop-color="#ff9c00"/>
    </linearGradient>
    <linearGradient id="linear-gradient-3" x1="0.864" y1="-0.023" x2="-0.499" y2="-1.789" gradientUnits="objectBoundingBox">
      <stop offset="0" stop-color="#ff3a44"/>
      <stop offset="1" stop-color="#c31162"/>
    </linearGradient>
    <linearGradient id="linear-gradient-4" x1="-0.186" y1="2.701" x2="0.423" y2="1.909" gradientUnits="objectBoundingBox">
      <stop offset="0" stop-color="#32a071"/>
      <stop offset="0.069" stop-color="#2da771"/>
      <stop offset="0.476" stop-color="#15cf74"/>
      <stop offset="0.801" stop-color="#06e775"/>
      <stop offset="1" stop-color="#00f076"/>
    </linearGradient>
  </defs>
  <path id="Path_119" data-name="Path 119" d="M139.509,44.111H5.366A5.388,5.388,0,0,1,0,38.6V5.514A5.388,5.388,0,0,1,5.366,0H139.509a5.388,5.388,0,0,1,5.366,5.514V38.6A5.388,5.388,0,0,1,139.509,44.111Z" fill="#52004a"/>
  <path id="Path_120" data-name="Path 120" d="M139.509.882a4.6,4.6,0,0,1,4.507,4.632V38.6a4.6,4.6,0,0,1-4.507,4.632H5.366A4.6,4.6,0,0,1,.859,38.6V5.514A4.6,4.6,0,0,1,5.366.882H139.509m0-.882H5.366A5.458,5.458,0,0,0,0,5.514V38.6a5.388,5.388,0,0,0,5.366,5.514H139.509a5.388,5.388,0,0,0,5.366-5.514V5.514A5.458,5.458,0,0,0,139.509,0Z" fill="#a6a6a6"/>
  <path id="Path_121" data-name="Path 121" d="M48.017,10.539a3,3,0,0,1-.772,2.206A3.419,3.419,0,0,1,41.4,10.319,3.389,3.389,0,0,1,44.819,6.9a2.936,2.936,0,0,1,1.323.331A2.4,2.4,0,0,1,47.134,8l-.551.551a2.056,2.056,0,0,0-1.764-.772,2.194,2.194,0,0,0-1.764.772,2.272,2.272,0,0,0-.772,1.875,2.272,2.272,0,0,0,.772,1.875,2.84,2.84,0,0,0,1.764.772,2.419,2.419,0,0,0,1.875-.772,1.826,1.826,0,0,0,.551-1.323H44.819V10.1h3.2v.441Zm5.073-2.757H50.112v2.1h2.757v.772H50.112v2.1h2.978v.882H49.23V7.01h3.86Zm3.639,5.845h-.882V7.782H53.972V7.01H58.6v.772H56.729Zm5.073,0V7.01h.882v6.617Zm4.632,0h-.882V7.782H63.676V7.01H68.2v.772H66.323v5.845Zm10.476-.882a3.419,3.419,0,0,1-5.845-2.426,3.419,3.419,0,1,1,6.837,0A3.242,3.242,0,0,1,76.909,12.745Zm-4.191-.551a2.6,2.6,0,0,0,1.764.772,2.194,2.194,0,0,0,1.764-.772,2.66,2.66,0,0,0,.772-1.875,2.272,2.272,0,0,0-.772-1.875,2.6,2.6,0,0,0-1.764-.772,2.194,2.194,0,0,0-1.764.772,2.66,2.66,0,0,0-.772,1.875A2.272,2.272,0,0,0,72.719,12.193Zm6.4,1.434V7.01h.993l3.2,5.183V7.01h.882v6.617h-.882l-3.419-5.4v5.4h-.772Z" transform="translate(2.534 0.709)" fill="#fff" stroke="#fff" stroke-miterlimit="10" stroke-width="0.2"/>
  <path id="Path_122" data-name="Path 122" d="M70.875,22.283a4.64,4.64,0,0,0-4.742,4.742,4.707,4.707,0,0,0,4.742,4.742,4.64,4.64,0,0,0,4.742-4.742A4.575,4.575,0,0,0,70.875,22.283Zm0,7.5a2.876,2.876,0,0,1,0-5.734,2.671,2.671,0,0,1,2.647,2.867A2.737,2.737,0,0,1,70.875,29.782Zm-10.256-7.5a4.64,4.64,0,0,0-4.742,4.742,4.707,4.707,0,0,0,4.742,4.742,4.64,4.64,0,0,0,4.742-4.742A4.575,4.575,0,0,0,60.619,22.283Zm0,7.5a2.876,2.876,0,0,1,0-5.734,2.671,2.671,0,0,1,2.647,2.867A2.737,2.737,0,0,1,60.619,29.782ZM48.378,23.717V25.7H53.12a4.17,4.17,0,0,1-1.1,2.536,4.881,4.881,0,0,1-3.639,1.434A5.134,5.134,0,0,1,43.2,24.378a5.2,5.2,0,0,1,5.183-5.293,5.468,5.468,0,0,1,3.639,1.434l1.434-1.434A7.067,7.067,0,0,0,48.489,17.1,7.439,7.439,0,0,0,41.1,24.378a7.439,7.439,0,0,0,7.389,7.278,6.346,6.346,0,0,0,5.073-2.1,6.639,6.639,0,0,0,1.764-4.632,4.135,4.135,0,0,0-.11-1.213H48.378Zm50.066,1.544a4.285,4.285,0,0,0-3.97-2.977,4.441,4.441,0,0,0-4.411,4.742,4.615,4.615,0,0,0,4.632,4.742,4.524,4.524,0,0,0,3.86-2.1l-1.544-1.1a2.688,2.688,0,0,1-2.316,1.323,2.393,2.393,0,0,1-2.316-1.434l6.286-2.647-.221-.551Zm-6.4,1.544a2.679,2.679,0,0,1,2.426-2.757,1.951,1.951,0,0,1,1.764.992L92.048,26.8Zm-5.183,4.521h2.1V17.541h-2.1Zm-3.308-8.05a3.631,3.631,0,0,0-2.536-1.1A4.738,4.738,0,0,0,76.5,26.915a4.566,4.566,0,0,0,4.521,4.632,3.166,3.166,0,0,0,2.426-1.1h.11v.662a2.507,2.507,0,0,1-4.852,1.1l-1.764.772a4.549,4.549,0,0,0,4.191,2.757c2.426,0,4.411-1.434,4.411-4.852V22.5H83.557v.772Zm-2.426,6.506a2.876,2.876,0,0,1,0-5.734,2.653,2.653,0,0,1,2.536,2.867A2.653,2.653,0,0,1,81.131,29.782Zm26.908-12.241h-4.962V31.326h2.1V26.143h2.867a4.306,4.306,0,1,0,0-8.6Zm.11,6.617h-2.978V19.416h2.978a2.422,2.422,0,0,1,2.426,2.316,2.524,2.524,0,0,1-2.426,2.426Zm12.682-1.985a3.707,3.707,0,0,0-3.639,2.1l1.875.772a1.948,1.948,0,0,1,1.875-.993,2.072,2.072,0,0,1,2.206,1.764v.11a4.374,4.374,0,0,0-2.1-.551c-1.985,0-3.97,1.1-3.97,3.088a3.231,3.231,0,0,0,3.419,3.088,3.1,3.1,0,0,0,2.647-1.323h.11v1.1h1.985V26.032a4.173,4.173,0,0,0-4.411-3.86Zm-.221,7.609c-.662,0-1.654-.331-1.654-1.213,0-1.1,1.213-1.434,2.206-1.434a4.265,4.265,0,0,1,1.875.441A2.568,2.568,0,0,1,120.61,29.782ZM132.189,22.5l-2.316,5.955h-.11L127.337,22.5h-2.206l3.639,8.381-2.1,4.632h2.1L134.4,22.5h-2.206Zm-18.527,8.822h2.1V17.541h-2.1Z" transform="translate(0.224 1.757)" fill="#fff"/>
  <g id="Group_74" data-name="Group 74" transform="translate(11.028 7.882)">
    <path id="Path_123" data-name="Path 123" d="M10.441,7.5A2.156,2.156,0,0,0,10,9.044V33.415a2.182,2.182,0,0,0,.551,1.544l.11.11L24.336,21.395v-.221Z" transform="translate(-10 -7.111)" fill="url(#linear-gradient)"/>
    <path id="Path_124" data-name="Path 124" d="M27.421,25.174,22.9,20.652v-.331L27.421,15.8l.11.11L32.935,19c1.544.882,1.544,2.316,0,3.2Z" transform="translate(-8.674 -6.258)" fill="url(#linear-gradient-2)"/>
    <path id="Path_125" data-name="Path 125" d="M28.816,24.632,24.185,20,10.4,33.785c.551.551,1.323.551,2.316.11l16.1-9.263" transform="translate(-9.959 -5.826)" fill="url(#linear-gradient-3)"/>
    <path id="Path_126" data-name="Path 126" d="M28.816,16.687l-16.1-9.153a1.787,1.787,0,0,0-2.316.11L24.185,21.319l4.632-4.632Z" transform="translate(-9.959 -7.145)" fill="url(#linear-gradient-4)"/>
    <path id="Path_127" data-name="Path 127" d="M28.706,24.1l-15.99,9.043a1.8,1.8,0,0,1-2.206,0l-.11.11.11.11a1.8,1.8,0,0,0,2.206,0Z" transform="translate(-9.959 -5.405)" fill="#52004a" opacity="0.2"/>
    <path id="Path_128" data-name="Path 128" d="M10.441,33.564A2.156,2.156,0,0,1,10,32.02v.11a2.182,2.182,0,0,0,.551,1.544v-.11h-.11Zm23.82-12.131-5.514,3.088.11.11,5.4-3.088A1.833,1.833,0,0,0,35.364,20C35.364,20.551,34.923,20.992,34.261,21.434Z" transform="translate(-10 -5.826)" fill="#52004a" opacity="0.12"/>
    <path id="Path_129" data-name="Path 129" d="M12.757,7.647l21.5,12.241c.662.441,1.1.882,1.1,1.434a1.833,1.833,0,0,0-1.1-1.544L12.757,7.536C11.213,6.654,10,7.316,10,9.08v.11C10,7.536,11.213,6.764,12.757,7.647Z" transform="translate(-10 -7.147)" fill="#fff" opacity="0.25"/>
  </g>
</svg>
