<svg xmlns="http://www.w3.org/2000/svg" xmlns:xlink="http://www.w3.org/1999/xlink" width="71.783" height="97.1" viewBox="0 0 71.783 97.1">
  <defs>
    <clipPath id="clip-path">
      <rect id="Rectangle_3462" data-name="Rectangle 3462" width="71.783" height="97.1" fill="#52004a"/>
    </clipPath>
  </defs>
  <g id="Group_17427" data-name="Group 17427" clip-path="url(#clip-path)">
    <path id="Path_16860" data-name="Path 16860" d="M130.007,14.858s-3.335,4.964-.917,10.131c2.377,5.081,9.04,10.468,12.246,15.912,10.332,17.542-11.121,25.02-11.121,25.02s6.3-3.645,7.5-10.39c1.435-8.126-6.855-16.218-9.8-19.13-10.954-10.852,2.091-21.543,2.091-21.543" transform="translate(-82.629 -10.851)" fill="#52004a"/>
    <path id="Path_16861" data-name="Path 16861" d="M70.875,53.94c-.989-4.058-3.55-7.476-9.349-12.763S56.483,30.9,56.483,30.9s-3.975,8.42-.591,11.8c-13.329,3.421-12.022,9.885-9.768,13.058C48.03,58.444,55.032,63,55.032,63s-.621,3.62-5.593,4.07S38.31,61.959,37.768,56.887c-.8-7.469,1.827-11.072,10.635-19.913,1.689-1.7,5.866-8.789,3.177-14.231-2.03-4.106-7.249-7-7.249-7a16.011,16.011,0,0,1,2.895,10.124C46.74,36.38,32.518,39.322,31.16,49.056c-1.043,7.485,2.74,12.893,12.2,17.112A16.634,16.634,0,0,0,60,64.621a8.359,8.359,0,0,0,5.318-.928c3.659-1.852,6.5-5.866,5.553-9.753M55.516,56.887c-6.492-1.35-7.665-7.819-5.869-10.8,6.767,2.419,5.869,10.8,5.869,10.8m7.591,3.2c-1.24-.2-2.612-.657-3.1-1.625,1.174-2.026,1.174-7.875,1.174-7.875s3.66,3.543,4.212,6.018c.15.671,1.213,4.039-2.285,3.482" transform="translate(-20.73 -11.497)" fill="#52004a"/>
    <path id="Path_16862" data-name="Path 16862" d="M101.349,0l.341.507a9.254,9.254,0,0,0,3.956,3.223l.623.278-.623.278a9.254,9.254,0,0,0-3.956,3.223l-.341.507-.341-.507a9.254,9.254,0,0,0-3.956-3.223l-.623-.278.623-.278A9.254,9.254,0,0,0,101.009.507Z" transform="translate(-64.497)" fill="#52004a"/>
    <path id="Path_16863" data-name="Path 16863" d="M15.332,280.771a12.5,12.5,0,0,1-.885,1.059,4.446,4.446,0,0,1-.954.764,4.775,4.775,0,0,1-1.285.5,7.924,7.924,0,0,1-1.9.194h-5.4l12.16-16.619H3.71l-2.042,4.063H3.1l.2-.266a12.666,12.666,0,0,1,.887-1.059,4.413,4.413,0,0,1,.956-.763,4.807,4.807,0,0,1,1.285-.505,7.891,7.891,0,0,1,1.9-.193h3.83L0,284.57H14.927l2.042-4.063H15.53Z" transform="translate(0 -194.747)" fill="#52004a"/>
    <path id="Path_16864" data-name="Path 16864" d="M104.521,249.91a5.23,5.23,0,0,0-1.76-1.954,7.46,7.46,0,0,0-2.543-1.049,13.966,13.966,0,0,0-2.959-.3c-.559,0-1.133.022-1.755.067s-1.2.108-1.763.174l-.781.093,1.122,3.024.723-.3c.3-.122.661-.255,1.149-.42.459-.154.95-.3,1.464-.44.482-.132,1-.252,1.523-.356a6.79,6.79,0,0,1,1.247-.136.954.954,0,0,1,.761.238,2.285,2.285,0,0,1,.516.92,5.708,5.708,0,0,1,.228,1.383c.012.251.022.5.028.733a11.634,11.634,0,0,0-2.481-.251,12.372,12.372,0,0,0-5.288,1.014,8.2,8.2,0,0,0-3.235,2.551,6.035,6.035,0,0,0-1.162,3.334c0,.1,0,.208,0,.312H89.39a4.35,4.35,0,0,1-2.479-.436h0a1.609,1.609,0,0,1-.549-1.358V245.775a3.858,3.858,0,0,0-1.313-3.277,5.674,5.674,0,0,0-3.572-.935,9.593,9.593,0,0,0-2.281.292,10.47,10.47,0,0,0-2.243.832,9.569,9.569,0,0,0-1.971,1.335q-.1.09-.2.182V232.747l-7.132.831v1.17h.68a4.36,4.36,0,0,1,2.479.436,1.614,1.614,0,0,1,.549,1.359v20.212a1.613,1.613,0,0,1-.549,1.359,4.191,4.191,0,0,1-2.37.436,4.224,4.224,0,0,1-2.385-.437,1.61,1.61,0,0,1-.548-1.358v-8.9a6.358,6.358,0,0,0-.633-2.99,5.258,5.258,0,0,0-1.762-1.957,7.48,7.48,0,0,0-2.541-1.046,16.265,16.265,0,0,0-4.711-.234c-.6.046-1.2.1-1.767.172l-.781.094,1.125,3.026.723-.3c.3-.122.672-.259,1.149-.42.453-.153.943-.3,1.459-.439.5-.136,1.014-.256,1.529-.357a6.723,6.723,0,0,1,1.243-.136.954.954,0,0,1,.761.238,2.3,2.3,0,0,1,.518.918,5.791,5.791,0,0,1,.226,1.384c.013.262.023.5.03.732a11.7,11.7,0,0,0-2.482-.25,12.351,12.351,0,0,0-5.289,1.014,8.223,8.223,0,0,0-3.232,2.55A6.024,6.024,0,0,0,49.9,253.2a5.772,5.772,0,0,0,.9,3.342,7.337,7.337,0,0,0,2.986,2.567,10.993,10.993,0,0,0,4.975,1.024,8.838,8.838,0,0,0,2.459-.335,10.121,10.121,0,0,0,1.269-.464l.207.464H77.832l-.026-1.244a4.345,4.345,0,0,1-2.481-.437,1.61,1.61,0,0,1-.548-1.358v-9.909a2.166,2.166,0,0,1,.5-1.05A6.76,6.76,0,0,1,76.6,244.5a8.272,8.272,0,0,1,1.824-1.037,4.9,4.9,0,0,1,1.9-.393,2.8,2.8,0,0,1,2,.563,3.017,3.017,0,0,1,.614,2.138v10.98a1.614,1.614,0,0,1-.55,1.359,4.361,4.361,0,0,1-2.479.436l-.005,1.244,13.494.024-.081-.614a6.468,6.468,0,0,1-.053-.943,6.007,6.007,0,0,1,.686-2.761,5.39,5.39,0,0,1,1.992-2.075,6.174,6.174,0,0,1,3.3-.812,6.328,6.328,0,0,1,2.492.432v6.773h3.422V252.9a6.389,6.389,0,0,0-.633-2.99M62.082,248v9.984a7.1,7.1,0,0,1-1.329.586,6.422,6.422,0,0,1-1.992.278,4.791,4.791,0,0,1-2.811-.789,5.162,5.162,0,0,1-1.765-2.075h0a6.3,6.3,0,0,1-.573-2.768,6.075,6.075,0,0,1,.686-2.76,5.441,5.441,0,0,1,1.994-2.077,6.157,6.157,0,0,1,3.3-.811,6.341,6.341,0,0,1,2.5.432" transform="translate(-33.37 -169.97)" fill="#52004a"/>
    <path id="Path_16865" data-name="Path 16865" d="M182.5,266.425c.6.046,1.185.069,1.752.069a13.955,13.955,0,0,0,2.962-.3,7.479,7.479,0,0,0,2.539-1.046,5.249,5.249,0,0,0,1.761-1.955,4.667,4.667,0,0,0,.207-.447l.3-.729h-3.308l-.045.515a5.373,5.373,0,0,1-.208,1.1,2.278,2.278,0,0,1-.514.918.954.954,0,0,1-.762.239,6.742,6.742,0,0,1-1.242-.136c-.529-.1-1.043-.224-1.532-.358-.514-.138-1.005-.285-1.458-.438-.49-.166-.856-.3-1.15-.42l-.724-.3-1.122,3.026.781.093c.575.068,1.169.126,1.766.172" transform="translate(-120.362 -191.344)" fill="#52004a"/>
    <path id="Path_16866" data-name="Path 16866" d="M63.389,347.454l1.89,3.385h-.573l-.464-.834h-1.7l-.459.834h-.569Zm0,1.017-.64,1.163h1.288Z" transform="translate(-41.145 -253.739)" fill="#52004a"/>
    <path id="Path_16867" data-name="Path 16867" d="M86.293,347.9h.635a2.083,2.083,0,0,1,1.021.221.646.646,0,0,1,.4.559q0,.412-.584.688.9.246.9.853a.772.772,0,0,1-.467.681,2.579,2.579,0,0,1-1.249.259h-.657Zm.54.394v.965a1.469,1.469,0,0,0,.693-.141.415.415,0,0,0,.24-.373.374.374,0,0,0-.217-.331,1.169,1.169,0,0,0-.581-.124q-.068,0-.135.005m0,1.351v1.116h.044a1.774,1.774,0,0,0,.964-.185.5.5,0,0,0,.258-.376.455.455,0,0,0-.289-.4,1.729,1.729,0,0,0-.791-.151Z" transform="translate(-57.718 -254.064)" fill="#52004a"/>
    <path id="Path_16868" data-name="Path 16868" d="M107.767,347.454l1.89,3.385h-.574l-.464-.834h-1.7l-.459.834h-.569Zm0,1.017-.64,1.163h1.288Z" transform="translate(-70.828 -253.739)" fill="#52004a"/>
    <path id="Path_16869" data-name="Path 16869" d="M128.526,347.918h.6l.983,1.312.972-1.312h.606l-1.313,1.766v1.495h-.547v-1.489Z" transform="translate(-85.967 -254.077)" fill="#52004a"/>
    <path id="Path_16870" data-name="Path 16870" d="M151.574,347.454l1.889,3.385h-.573l-.464-.834h-1.7l-.458.834H149.7Zm0,1.017-.64,1.163h1.288Z" transform="translate(-100.129 -253.739)" fill="#52004a"/>
  </g>
</svg>
