<svg id="sort" xmlns="http://www.w3.org/2000/svg" width="32.627" height="24.753" viewBox="0 0 32.627 24.753">
  <path id="Path_30" data-name="Path 30" d="M6.75,6.75A1.125,1.125,0,0,0,5.625,7.875v22.5a1.125,1.125,0,0,0,2.25,0V7.875A1.125,1.125,0,0,0,6.75,6.75Z" transform="translate(20.25 -6.75)" fill="#001514" fill-rule="evenodd"/>
  <path id="Path_31" data-name="Path 31" d="M22.827,25.079a1.125,1.125,0,0,0,0,1.593l4.5,4.5a1.125,1.125,0,0,0,1.593,0l4.5-4.5a1.126,1.126,0,1,0-1.593-1.593l-3.7,3.7-3.7-3.706a1.125,1.125,0,0,0-1.593,0Zm-3.7-10.454A1.125,1.125,0,0,1,18,15.75H11.25a1.125,1.125,0,0,1,0-2.25H18a1.125,1.125,0,0,1,1.123,1.125Zm0,6.75A1.125,1.125,0,0,1,18,22.5H6.748a1.125,1.125,0,0,1,0-2.25H18a1.125,1.125,0,0,1,1.123,1.125Zm0,6.75A1.125,1.125,0,0,1,18,29.25H2.248a1.125,1.125,0,0,1,0-2.25H18a1.125,1.125,0,0,1,1.123,1.125Zm0-20.25A1.125,1.125,0,0,1,18,9H15.75a1.125,1.125,0,0,1,0-2.25H18a1.125,1.125,0,0,1,1.123,1.125Z" transform="translate(-1.123 -6.75)" fill="#001514" fill-rule="evenodd"/>
</svg>
